<svg version="1" xmlns="http://www.w3.org/2000/svg" width="933.333" height="933.333" viewBox="0 0 700.000000 700.000000"><path d="M212.2 137.6C136.8 213.2 75 275.3 75 275.8c0 1.4 60.9 61.6 61.7 60.9.4-.4 62.5-62.4 138-137.8L411.8 61.8l-30.9-30.9c-17-17-31-30.9-31.2-30.8-.1 0-62 61.9-137.5 137.5zM393 105.5l-30.6 30.6 137.9 137.8 137.9 137.9 15.7-15.6c8.6-8.6 22.5-22.6 30.8-31L700 350 562.5 212.5C486.9 136.9 424.7 75 424.3 75c-.5 0-14.5 13.7-31.3 30.5zM30.8 319.1L0 350l137.8 137.9 137.7 137.8 30.8-30.6c16.9-16.8 30.6-31 30.4-31.4-.2-.8-262.1-263-271.4-271.8l-3.8-3.6-30.7 30.8zM425.8 500.6L288.2 638.2l30.9 30.9L350 700l137.5-137.5C563.1 486.9 625 424.7 625 424.2c0-.8-60.2-61.2-61.1-61.2-.3 0-62.4 61.9-138.1 137.6z"/></svg>